<svg width="25" height="21" viewBox="0 0 25 21" fill="none" xmlns="http://www.w3.org/2000/svg">
<path d="M25 10.5061C24.999 10.2958 24.9566 10.088 24.8752 9.89498C24.7939 9.70199 24.6753 9.52784 24.5267 9.38302L15.8469 0.487002C15.5054 0.149047 15.1504 0 14.7786 0C13.9334 0 13.3266 0.608319 13.3266 1.43501C13.3266 1.86828 13.499 2.23224 13.7627 2.50433L16.7343 5.59099L20.5629 9.17851L17.5 8.9896H1.49256C0.608519 8.9896 0 9.61352 0 10.5061C0 11.3865 0.608519 12.0087 1.49256 12.0087H17.4983L20.5612 11.8198L16.7326 15.4073L13.761 18.4957C13.6223 18.635 13.5123 18.8014 13.4374 18.9851C13.3625 19.1687 13.3242 19.3659 13.3249 19.565C13.3249 20.3899 13.9334 21 14.7786 21C15.172 20.9938 15.547 20.828 15.8215 20.539L24.5233 11.617C24.6709 11.4742 24.7891 11.3024 24.8707 11.1118C24.9523 10.9213 24.9957 10.7159 24.9983 10.5078L25 10.5061Z" fill="white" fill-opacity="0.6"/>
</svg>
